# xmcd
#
# Track frame offsets: 
#        182
#        23865
#        34842
#        47385
#        58457
#        68935
#        89512
#        103730
#        116570
#        127037
#
# Disc length: 1829 seconds
#
# Revision: 0
# Processed by: cddbd v1.4PL0 Copyright (c) Steve Scherf et al.
# Submitted via: ExactAudioCopy v0.90b3
#
DISCID=8f07230a
DTITLE=Red Sovine - (The Late Great Red Sovine) Teddy Bear
DYEAR=1900
DGENRE=Country
TTITLE0=Teddy Bear
TTITLE1=Woman Behind The Man Behind The Wheel
TTITLE2=Where Could I Go But To Her
TTITLE3=The Prettiest Dress
TTITLE4=Money, Marbles and Chalk
TTITLE5=Little Joe
TTITLE6=Eighteen Wheels Hummin' Home Sweet Home 
TTITLE7=Last Mile Of The Way
TTITLE8=Love Is
TTITLE9=Long Night
EXTD=
EXTT0=
EXTT1=
EXTT2=
EXTT3=
EXTT4=
EXTT5=
EXTT6=
EXTT7=
EXTT8=
EXTT9=
PLAYORDER=
